# xmcd
#
# Track frame offsets:
#	150
#	14467
#	36794
#	44749
#	73991
#	87380
#	98787
#	112422
#	125190
#	145138
#
# Disc length: 2626 seconds
#
# Revision: 0
# Processed by: cddbd v1.5.2PL0 Copyright (c) Steve Scherf et al.
# Submitted via: audiograbber 1.83.01
#
DISCID=9d0a400a
DTITLE=The Yardbirds - Live at the Anderson Theatre
DYEAR=1990
DGENRE=
TTITLE0=01 - The Train Kept A Rollin'
TTITLE1=02 - You're a Better Man Than I
TTITLE2=03 - Heartful of Soul
TTITLE3=04 - I'm Confused
TTITLE4=05 - My Baby
TTITLE5=06 - Over Under Sideways Down
TTITLE6=07 - Drinking Muddy Water
TTITLE7=08 - Shapes of Things
TTITLE8=09 - White Summer
TTITLE9=10 - I'm A Man
EXTD=
EXTT0=
EXTT1=
EXTT2=
EXTT3=
EXTT4=
EXTT5=
EXTT6=
EXTT7=
EXTT8=
EXTT9=
PLAYORDER=
